<svg xmlns="http://www.w3.org/2000/svg" width="920" height="360" viewBox="0 0 920 360" role="img">
<title>guivital1 data city</title>
<defs>
  <linearGradient id="bg" x1="0" y1="0" x2="1" y2="1"><stop stop-color="#0b0f10"/><stop offset="1" stop-color="#111718"/></linearGradient>
  <filter id="glow"><feGaussianBlur stdDeviation="3" result="b"/><feMerge><feMergeNode in="b"/><feMergeNode in="SourceGraphic"/></feMerge></filter>
</defs>
<rect width="920" height="360" rx="18" fill="url(#bg)"/>
<g stroke="#263032" stroke-width="1" opacity=".65"><path d="M70 230 L460 125 L850 230" fill="none"/><path d="M70 252 L460 147 L850 252" fill="none"/><path d="M70 274 L460 169 L850 274" fill="none"/><path d="M70 296 L460 191 L850 296" fill="none"/><path d="M70 318 L460 213 L850 318" fill="none"/><path d="M70 340 L460 235 L850 340" fill="none"/><path d="M70 340 L460 235" fill="none"/><path d="M135 340 L460 235" fill="none"/><path d="M200 340 L460 235" fill="none"/><path d="M265 340 L460 235" fill="none"/><path d="M330 340 L460 235" fill="none"/><path d="M395 340 L460 235" fill="none"/><path d="M460 340 L460 235" fill="none"/><path d="M525 340 L460 235" fill="none"/><path d="M590 340 L460 235" fill="none"/><path d="M655 340 L460 235" fill="none"/><path d="M720 340 L460 235" fill="none"/><path d="M785 340 L460 235" fill="none"/><path d="M850 340 L460 235" fill="none"/></g><text x="54" y="55" fill="#f4f4f0" font-family="ui-monospace,monospace" font-size="22" font-weight="700">DATA CITY</text><circle cx="805" cy="49" r="4" fill="#a6e22e" filter="url(#glow)"><animate attributeName="opacity" values=".35;1;.35" dur="2.4s" repeatCount="indefinite"/></circle><text x="820" y="54" fill="#839092" font-family="ui-monospace,monospace" font-size="12">LIVE DATA</text><g><polygon points="190.0,130.0 264.0,100.0 264.0,264.0 190.0,294.0" fill="#a6e22e" opacity="0.72"/><polygon points="264.0,100.0 294.0,130.0 294.0,294.0 264.0,264.0" fill="#a6e22e" opacity="0.38"/><polygon points="190.0,130.0 220.0,160.0 294.0,130.0 264.0,100.0" fill="#a6e22e" opacity="0.96"/><text x="198" y="316" fill="#d9dfdc" font-family="ui-monospace,monospace" font-size="12">Jupyter</text><text x="198" y="332" fill="#738083" font-family="ui-monospace,monospace" font-size="10">65.0%</text></g><g><polygon points="395.0,217.1 469.0,187.1 469.0,264.0 395.0,294.0" fill="#7dd3fc" opacity="0.72"/><polygon points="469.0,187.1 499.0,217.1 499.0,294.0 469.0,264.0" fill="#7dd3fc" opacity="0.38"/><polygon points="395.0,217.1 425.0,247.1 499.0,217.1 469.0,187.1" fill="#7dd3fc" opacity="0.96"/><text x="403" y="316" fill="#d9dfdc" font-family="ui-monospace,monospace" font-size="12">JavaScript</text><text x="403" y="332" fill="#738083" font-family="ui-monospace,monospace" font-size="10">17.8%</text></g><g><polygon points="600.0,218.2 674.0,188.2 674.0,264.0 600.0,294.0" fill="#c4b5fd" opacity="0.72"/><polygon points="674.0,188.2 704.0,218.2 704.0,294.0 674.0,264.0" fill="#c4b5fd" opacity="0.38"/><polygon points="600.0,218.2 630.0,248.2 704.0,218.2 674.0,188.2" fill="#c4b5fd" opacity="0.96"/><text x="608" y="316" fill="#d9dfdc" font-family="ui-monospace,monospace" font-size="12">Python</text><text x="608" y="332" fill="#738083" font-family="ui-monospace,monospace" font-size="10">17.2%</text></g><g><polygon points="242.0,193.9 316.0,163.9 316.0,208.0 242.0,238.0" fill="#f9a8d4" opacity="0.72"/><polygon points="316.0,163.9 346.0,193.9 346.0,238.0 316.0,208.0" fill="#f9a8d4" opacity="0.38"/><polygon points="242.0,193.9 272.0,223.9 346.0,193.9 316.0,163.9" fill="#f9a8d4" opacity="0.96"/><text x="250" y="260" fill="#d9dfdc" font-family="ui-monospace,monospace" font-size="12">HTML</text><text x="250" y="276" fill="#738083" font-family="ui-monospace,monospace" font-size="10">&lt;0.1%</text></g><g><polygon points="447.0,194.0 521.0,164.0 521.0,208.0 447.0,238.0" fill="#fbbf24" opacity="0.72"/><polygon points="521.0,164.0 551.0,194.0 551.0,238.0 521.0,208.0" fill="#fbbf24" opacity="0.38"/><polygon points="447.0,194.0 477.0,224.0 551.0,194.0 521.0,164.0" fill="#fbbf24" opacity="0.96"/><text x="455" y="260" fill="#d9dfdc" font-family="ui-monospace,monospace" font-size="12">CSS</text><text x="455" y="276" fill="#738083" font-family="ui-monospace,monospace" font-size="10">&lt;0.1%</text></g><text x="54" y="325" fill="#839092" font-family="ui-monospace,monospace" font-size="12">44 ORIGINAL REPOS  ·  5 TOP LANGUAGES  ·  @guivital1</text></svg>